#!OML:ASF \\sashay\E\basketball\basketball\Project 1\Capture day 1\Session 1\Subject.ASF
:FULLY-SPECIFIED
:DEGREES
83
root -27.7313 13.1008 3.24221 337.08 60.583 288.414
lowerback -27.6163 9.64147 28.2716
upperback -0.574142 3.738 0.330108
thorax 14.9455 3.59972 -12.4295
lowerneck -7.90036 -5.12647 -10.8424
upperneck -3.78171 -5.70557 25.4119
head 1.49842 -2.34059 9.57042
rclavicle 8.74653e-015 2.22639e-014
rhumerus -34.3723 7.07317 -93.4421
rradius 106.17
rwrist 2.3875
rhand -31.2262 33.3838
rfingers 7.12502
rthumb -4.50158 3.45161
lclavicle 8.74653e-015 2.22639e-014
lhumerus -7.13608 -31.8923 106.917
lradius 57.1396
lwrist 20.9945
lhand -16.4455 24.9066
lfingers 7.12502
lthumb 9.7704 54.6599
rfemur -87.5632 -3.60437 39.2354
rtibia 57.7878
rfoot 1.29565 -9.12897
rtoes -35.2127
lfemur -6.76065 19.3798 12.56
ltibia 31.3954
lfoot -48.791 32.6522
ltoes -9.64113
84
root -27.4278 13.086 3.40072 340.068 59.3037 290.375
lowerback -26.3141 8.68 27.118
upperback -1.76588 3.23064 3.49187
thorax 12.4062 2.90447 -8.582
lowerneck -7.47258 -4.04553 -13.0112
upperneck -2.10189 -4.42521 21.9843
head 1.55273 -1.7578 8.86559
rclavicle -1.35174e-014 -6.36111e-015
rhumerus -34.6644 10.2851 -90.9391
rradius 105.397
rwrist 6.4263
rhand -29.4708 34.2274
rfingers 7.12502
rthumb -2.80643 4.26617
lclavicle -1.35174e-014 -6.36111e-015
lhumerus -9.19238 -27.6415 110.301
lradius 56.5598
lwrist 18.572
lhand -17.8897 24.5461
lfingers 7.12502
lthumb 8.37679 54.36
rfemur -88.0235 -2.61861 42.5352
rtibia 58.1858
rfoot 2.96958 -8.03961
rtoes -36.1474
lfemur -6.54421 17.4215 11.9177
ltibia 32.144
lfoot -50.651 30.6092
ltoes 9.29484
85
root -27.1509 13.0996 3.56214 342.804 58.7995 292.559
lowerback -27.933 10.6425 30.3535
upperback 0.00881108 3.98367 1.60766
thorax 15.7651 3.91945 -11.5907
lowerneck -7.32633 -3.84384 -11.2917
upperneck -4.20264 -3.92308 21.4841
head 0.790534 -1.58726 8.42292
rclavicle -1.63003e-014 -1.98785e-014
rhumerus -29.3649 10.2594 -92.8697
rradius 103.607
rwrist 9.34586
rhand -30.038 35.8498
rfingers 7.12502
rthumb -3.35419 5.89641
lclavicle -1.63003e-014 -1.98785e-014
lhumerus -7.15378 -30.4694 105.887
lradius 56.6122
lwrist 18.094
lhand -17.3652 27.0402
lfingers 7.12502
lthumb 8.88291 56.8332
rfemur -87.7478 -2.24656 43.3638
rtibia 59.1045
rfoot 0.535673 -11.4003
rtoes -18.7946
lfemur -7.05484 18.1353 11.0312
ltibia 33.8018
lfoot -45.612 30.3203
ltoes 14.0626
86
root -26.904 13.1549 3.72649 345.222 59.2916 294.989
lowerback -26.9395 10.0717 29.7602
upperback -0.118911 3.72841 2.47663
thorax 14.9697 3.65198 -10.5243
lowerneck -7.0779 -3.2413 -11.6452
upperneck -4.03316 -3.16844 19.1966
head 0.595767 -1.2551 7.76164
rclavicle 4.69132e-014 -6.12257e-014
rhumerus -26.7411 11.9443 -92.2039
rradius 101.574
rwrist 12.9656
rhand -29.2952 35.7415
rfingers 7.12502
rthumb -2.63681 5.77807
lclavicle 4.69132e-014 -6.12257e-014
lhumerus -8.14536 -28.4966 106.339
lradius 55.892
lwrist 15.883
lhand -17.1566 25.6017
lfingers 7.12502
lthumb 9.0842 55.386
rfemur -87.3605 -2.80221 43.4242
rtibia 60.2003
rfoot -3.57137 -12.7604
rtoes -10.0844
lfemur -8.50018 20.6119 9.77324
ltibia 36.6497
lfoot -33.322 31.294
ltoes 3.66406
87
root -26.7042 13.2143 3.89634 347.62 60.6809 297.918
lowerback -25.6263 9.1455 28.473
upperback -0.153593 3.34064 2.99364
thorax 14.1459 3.30872 -9.67947
lowerneck -6.92835 -2.7901 -11.3904
upperneck -4.16755 -2.60812 17.042
head 0.376873 -1.01572 7.03795
rclavicle 1.39149e-014 7.79236e-014
rhumerus -23.4769 13.0702 -91.9097
rradius 98.8906
rwrist 16.5071
rhand -28.7407 35.2589
rfingers 7.12502
rthumb -2.10132 5.28955
lclavicle 1.39149e-014 7.79236e-014
lhumerus -9.05112 -27.1984 106.168
lradius 55.2308
lwrist 14.087
lhand -17.4164 24.8576
lfingers 7.12502
lthumb 8.83355 54.6527
rfemur -87.0997 -4.19375 42.7294
rtibia 61.297
rfoot -6.24054 -13.385
rtoes -10.7335
lfemur -10.5955 22.6174 8.01865
ltibia 40.5676
lfoot -21.4666 27.5584
ltoes -5.78854
88
root -26.5438 13.2853 4.0647 349.89 63.0657 301.229
lowerback -23.7773 7.70796 26.4724
upperback -0.209854 2.62922 3.50415
thorax 12.9404 2.74858 -8.68407
lowerneck -6.93065 -2.48026 -11.3689
upperneck -4.4207 -2.19977 15.166
head 0.19681 -0.834206 6.44804
rclavicle 2.3556e-014 -1.21259e-014
rhumerus -20.2158 14.5 -91.2466
rradius 95.7494
rwrist 19.2817
rhand -29.7283 36.3005
rfingers 7.12502
rthumb -3.0551 6.34265
lclavicle 2.3556e-014 -1.21259e-014
lhumerus -10.2546 -26.0338 106.103
lradius 54.6848
lwrist 12.3694
lhand -18.3135 24.6991
lfingers 7.12502
lthumb 7.96779 54.5289
rfemur -86.8021 -6.64681 41.2842
rtibia 62.4301
rfoot -8.72182 -13.5801
rtoes -11.89
lfemur -13.1753 22.9494 5.70361
ltibia 45.1157
lfoot -13.3948 20.7039
ltoes -9.36053
89
root -26.4107 13.3822 4.2339 352.44 66.4792 305.389
lowerback -20.6831 5.64124 23.5321
upperback -0.713762 1.67835 4.19859
thorax 10.6255 1.91366 -7.24112
lowerneck -6.97088 -2.19294 -11.5407
upperneck -4.42588 -1.83435 13.3887
head 0.113651 -0.66319 5.92459
rclavicle 3.1731e-014 -3.3197e-014
rhumerus -17.4369 15.8012 -90.1797
rradius 92.2206
rwrist 21.5189
rhand -29.0315 35.8971
rfingers 7.12502
rthumb -2.38211 5.93066
lclavicle 3.1731e-014 -3.3197e-014
lhumerus -11.829 -25.13 106.27
lradius 54.1221
lwrist 10.9036
lhand -20.118 25.3245
lfingers 7.12502
lthumb 6.22587 55.213
rfemur -86.2156 -10.2804 39.0726
rtibia 63.5971
rfoot -10.8792 -13.5109
rtoes -13.4683
lfemur -16.2039 21.2807 2.80298
ltibia 50.047
lfoot -8.03116 13.2363
ltoes -17.413
90
root -26.2678 13.4465 4.40193 355.261 68.862 310.309
lowerback -16.7461 3.66648 20.8445
upperback -1.29555 0.774691 5.36636
thorax 8.22163 1.13251 -5.46257
lowerneck -6.56482 -1.65457 -12.1313
upperneck -4.50712 -1.14826 11.5387
head -0.0929703 -0.33826 5.46219
rclavicle 1.31198e-014 7.87187e-014
rhumerus -14.7643 17.7758 -88.7201
rradius 88.0209
rwrist 23.3739
rhand -29.3559 37.2806
rfingers 7.12502
rthumb -2.69539 7.31788
lclavicle 1.31198e-014 7.87187e-014
lhumerus -13.7949 -22.9215 106.91
lradius 53.0512
lwrist 10.4308
lhand -20.1015 25.6187
lfingers 7.12502
lthumb 6.24179 55.5068
rfemur -84.6794 -13.2733 36.7695
rtibia 64.912
rfoot -12.6875 -13.3209
rtoes -16.366
lfemur -18.2653 19.7302 0.398801
ltibia 55.2653
lfoot -5.89646 5.83162
ltoes -23.7891
91
root -26.1163 13.4704 4.55804 357.539 69.9431 315.17
lowerback -12.6189 2.74408 20.052
upperback -0.738191 0.680937 5.26848
thorax 6.50489 0.939532 -5.27966
lowerneck -6.63711 -1.51519 -11.5892
upperneck -5.17889 -0.963026 10.2887
head -0.321119 -0.24698 4.98893
rclavicle 1.47101e-014 -9.74045e-014
rhumerus -11.2612 17.9024 -88.157
rradius 83.0182
rwrist 25.8482
rhand -30.251 36.9565
rfingers 7.12502
rthumb -3.55983 7.00645
lclavicle 1.47101e-014 -9.74045e-014
lhumerus -15.2801 -22.2268 106.194
lradius 52.0297
lwrist 10.8089
lhand -20.0658 25.9442
lfingers 7.12502
lthumb 6.27633 55.8312
rfemur -82.2953 -15.2879 34.6183
rtibia 66.4013
rfoot -14.2803 -13.2057
rtoes -20.2056
lfemur -19.1654 18.9777 -1.33245
ltibia 60.7379
lfoot -5.20984 -0.158934
ltoes -21.3865
